<svg width="113" height="94" viewBox="0 0 113 94" fill="none" xmlns="http://www.w3.org/2000/svg">
<g clip-path="url(#clip0_2100_2204)">
<path d="M57.9392 25.569C44.8042 25.569 34.1541 36.2191 34.1541 49.354C34.1541 62.4889 44.8042 73.139 57.9392 73.139C71.0741 73.139 81.7242 62.4889 81.7242 49.354C81.7242 36.2191 71.0773 25.569 57.9392 25.569ZM57.9392 60.1043C52.0002 60.1043 47.1889 55.2898 47.1889 49.354C47.1889 43.4182 52.0034 38.6037 57.9392 38.6037C63.8749 38.6037 68.6894 43.4182 68.6894 49.354C68.6894 55.2898 63.8749 60.1043 57.9392 60.1043Z" fill="#D7FFC9"/>
<path d="M34.907 37.2433C34.907 32.9361 37.0105 29.4367 39.6311 29.3333L46.2454 29.3301V45.1598H39.6311V45.1534C37.0105 45.05 34.907 41.5506 34.907 37.2433Z" fill="#53FD1B"/>
<path d="M46.3649 45.1566C49.04 45.1566 51.2085 41.6137 51.2085 37.2433C51.2085 32.873 49.04 29.3301 46.3649 29.3301C43.6899 29.3301 41.5213 32.873 41.5213 37.2433C41.5213 41.6137 43.6899 45.1566 46.3649 45.1566Z" fill="#279D00"/>
<path d="M42.5844 29.3301C39.9089 29.3301 37.7408 32.8747 37.7408 37.2433C37.7408 41.612 39.9089 45.1566 42.5844 45.1566" stroke="#279D00" stroke-linecap="round" stroke-linejoin="round"/>
<path d="M46.3455 37.2434C46.3455 37.7927 46.6137 38.2321 46.9465 38.2321H70.3406C70.6799 38.2321 70.9481 37.7895 70.9481 37.2434C70.9481 36.6973 70.6799 36.2546 70.3406 36.2546H46.9465C46.6137 36.2546 46.3455 36.6973 46.3455 37.2434Z" fill="#3D60FF"/>
<path d="M57.1895 36.2546V38.2354H70.3406C70.6799 38.2354 70.9481 37.7927 70.9481 37.2466C70.9481 36.7005 70.6799 36.2579 70.3406 36.2579H57.1895V36.2546Z" fill="#3D60FF"/>
<path d="M64.673 37.2433C64.673 32.9361 66.7766 29.4367 69.3971 29.3333L76.0114 29.3301V45.1598H69.3971V45.1534C66.7766 45.05 64.673 41.5506 64.673 37.2433Z" fill="#53FD1B"/>
<path d="M76.131 45.1566C78.806 45.1566 80.9746 41.6137 80.9746 37.2433C80.9746 32.873 78.806 29.3301 76.131 29.3301C73.4559 29.3301 71.2873 32.873 71.2873 37.2433C71.2873 41.6137 73.4559 45.1566 76.131 45.1566Z" fill="#279D00"/>
<path d="M72.3504 29.3301C69.675 29.3301 67.5068 32.8747 67.5068 37.2433C67.5068 41.612 69.675 45.1566 72.3504 45.1566" stroke="#279D00" stroke-linecap="round" stroke-linejoin="round"/>
<path d="M75.2456 37.2434C75.2456 37.7895 75.517 38.2321 75.8498 38.2321H80.1764C80.5125 38.2321 80.7839 37.7895 80.7839 37.2434C80.7839 36.6973 80.5125 36.2546 80.1764 36.2546H75.8498C75.517 36.2546 75.2456 36.6973 75.2456 37.2434Z" fill="#3D60FF"/>
<path d="M79.569 37.2434C79.569 37.7895 79.8404 38.2321 80.1732 38.2321C80.506 38.2321 80.7807 37.7895 80.7807 37.2434C80.7807 36.6973 80.5093 36.2546 80.1732 36.2546C79.8372 36.2546 79.569 36.6973 79.569 37.2434Z" fill="#D9E0FF"/>
<path d="M50.4071 33.2885C51.0856 33.2277 51.6853 33.4787 52.0184 33.8832C52.3119 33.6215 52.7212 33.4396 53.1864 33.3978H53.1825C53.8337 33.3395 54.412 33.5696 54.7528 33.9457C55.0491 33.6503 55.4857 33.4429 55.9871 33.3978H55.9842C56.6678 33.3366 57.2711 33.5925 57.6034 34.0023C57.8993 33.6767 58.3593 33.4457 58.8924 33.3978H58.8895C59.9374 33.3041 60.8004 33.9517 60.7791 34.765L60.7635 34.9301L60.7274 36.5765L62.909 35.6537C63.2903 35.4923 63.7877 35.6666 64.1043 36.0736C64.4758 36.5485 64.4695 37.1721 64.0916 37.4662L60.6512 40.1478L60.5965 42.7406L64.5506 55.6586H64.5467L69.1034 70.4379C65.4684 72.2214 61.9332 73.139 57.9364 73.139C57.0801 73.139 56.2296 73.1001 55.3895 73.0258L53.241 56.5951L51.5448 43.6117L48.9754 37.0951L48.7752 34.8422C48.7077 34.0701 49.4379 33.3757 50.4071 33.2885Z" fill="#985E28"/>
<path d="M57.6096 33.9993L57.4545 37.0948" stroke="#87350C" stroke-linecap="round" stroke-linejoin="round"/>
<path d="M54.7855 33.996L54.6401 37.0947" stroke="#87350C" stroke-linecap="round" stroke-linejoin="round"/>
<path d="M52.081 33.8829L51.9355 36.9817" stroke="#87350C" stroke-linecap="round" stroke-linejoin="round"/>
</g>
<path d="M54.3714 24.3797L54.3714 17.2441" stroke="#FFF100" stroke-width="2" stroke-linecap="round" stroke-linejoin="round"/>
<path d="M54.2465 73.0991L54.2465 91.5724" stroke="#FFF100" stroke-width="2" stroke-linecap="round" stroke-linejoin="round"/>
<path d="M78.7511 48.7593H95.4006" stroke="#FFF100" stroke-width="2" stroke-linecap="round" stroke-linejoin="round"/>
<path d="M31.181 48.7593L21.0724 48.7593" stroke="#FFF100" stroke-width="2" stroke-linecap="round" stroke-linejoin="round"/>
<path d="M76.3726 25.3715L83.9053 17.8387" stroke="#03D8FC" stroke-width="2" stroke-linecap="round" stroke-linejoin="round"/>
<path d="M38.4164 65.9036L24.9374 79.3826" stroke="#03D8FC" stroke-width="2" stroke-linecap="round" stroke-linejoin="round"/>
<path d="M71.5156 65.9036L76.6699 71.0578" stroke="#03D8FC" stroke-width="2" stroke-linecap="round" stroke-linejoin="round"/>
<path d="M33.9567 27.7501L22.2616 16.055" stroke="#03D8FC" stroke-width="2" stroke-linecap="round" stroke-linejoin="round"/>
<path d="M45.6669 72.5443L33.8568 93" stroke="#FFF100" stroke-width="2" stroke-linecap="round" stroke-linejoin="round"/>
<path d="M71.3182 11.8926L65.7592 24.1699" stroke="#EF0A62" stroke-width="2" stroke-linecap="round" stroke-linejoin="round"/>
<path d="M31.221 39.9998L1 29.9261" stroke="white" stroke-width="2" stroke-linecap="round" stroke-linejoin="round"/>
<path d="M95.6979 66.3008L81.5893 58.708" stroke="#3D60FF" stroke-width="2" stroke-linecap="round" stroke-linejoin="round"/>
<path d="M31.2209 61.5863L2.43906 74.5382" stroke="white" stroke-width="2" stroke-linecap="round" stroke-linejoin="round"/>
<path d="M111.695 24.9742L82.9134 37.9261" stroke="#03D8FC" stroke-width="2" stroke-linecap="round" stroke-linejoin="round"/>
<path d="M44.1728 25.6088L32.9922 6.24353" stroke="#3D60FF" stroke-width="2" stroke-linecap="round" stroke-linejoin="round"/>
<path d="M67.1984 73.0991L70.4263 79.0853" stroke="#EF0A62" stroke-width="2" stroke-linecap="round" stroke-linejoin="round"/>
<path d="M80.8323 4.16238C81.9817 4.16238 82.9134 3.2306 82.9134 2.08119C82.9134 0.93178 81.9817 0 80.8323 0C79.6828 0 78.7511 0.93178 78.7511 2.08119C78.7511 3.2306 79.6828 4.16238 80.8323 4.16238Z" fill="#EF0A62"/>
<path d="M92.1301 44.597C93.2796 44.597 94.2113 43.6652 94.2113 42.5158C94.2113 41.3664 93.2796 40.4346 92.1301 40.4346C90.9807 40.4346 90.049 41.3664 90.049 42.5158C90.049 43.6652 90.9807 44.597 92.1301 44.597Z" fill="#78EA00"/>
<path d="M18.3965 29.7312C20.5312 29.7312 22.2616 28.0008 22.2616 25.8662C22.2616 23.7316 20.5312 22.0011 18.3965 22.0011C16.2619 22.0011 14.5315 23.7316 14.5315 25.8662C14.5315 28.0008 16.2619 29.7312 18.3965 29.7312Z" fill="#FFF100"/>
<path d="M65.372 86.2207C66.5214 86.2207 67.4532 85.289 67.4532 84.1395C67.4532 82.9901 66.5214 82.0583 65.372 82.0583C64.2226 82.0583 63.2908 82.9901 63.2908 84.1395C63.2908 85.289 64.2226 86.2207 65.372 86.2207Z" fill="#FFF100"/>
<path d="M20.775 63.0303C21.9245 63.0303 22.8562 62.0985 22.8562 60.9491C22.8562 59.7997 21.9245 58.8679 20.775 58.8679C19.6256 58.8679 18.6939 59.7997 18.6939 60.9491C18.6939 62.0985 19.6256 63.0303 20.775 63.0303Z" fill="#FFF100"/>
<path d="M103.726 54.0962L104.329 55.3581C104.472 55.665 104.756 55.881 105.085 55.9265L106.433 56.1311C107.255 56.2562 107.583 57.3021 106.992 57.9046L106.017 58.8937C105.775 59.1324 105.677 59.4735 105.732 59.8145L105.962 61.2129C106.104 62.0655 105.239 62.7135 104.504 62.3156L103.299 61.6563C103.003 61.4971 102.653 61.4971 102.368 61.6563L101.162 62.3156C100.428 62.7135 99.5626 62.0655 99.7051 61.2129L99.9352 59.8145C99.99 59.4735 99.8804 59.1324 99.6503 58.8937L98.6751 57.9046C98.0834 57.3021 98.4121 56.2562 99.2339 56.1311L100.582 55.9265C100.91 55.881 101.195 55.665 101.338 55.3581L101.94 54.0962C102.313 53.3231 103.376 53.3231 103.737 54.0962H103.726Z" fill="#EF0A62"/>
<path d="M13.2242 40.3038L13.7466 41.3133C13.87 41.5589 14.1169 41.7317 14.4018 41.7681L15.5699 41.9318C16.2821 42.0318 16.567 42.8686 16.0542 43.3506L15.209 44.1418C15.0001 44.3328 14.9146 44.6057 14.9621 44.8785L15.1615 45.9972C15.285 46.6793 14.5348 47.1977 13.8985 46.8794L12.8539 46.3519C12.5975 46.2246 12.2936 46.2246 12.0467 46.3519L11.0021 46.8794C10.3658 47.1977 9.6156 46.6793 9.73906 45.9972L9.93848 44.8785C9.98596 44.6057 9.891 44.3328 9.69158 44.1418L8.84639 43.3506C8.33359 42.8686 8.61848 42.0318 9.33071 41.9318L10.4988 41.7681C10.7837 41.7317 11.0306 41.5589 11.154 41.3133L11.6763 40.3038C11.9992 39.6854 12.9204 39.6854 13.2337 40.3038H13.2242Z" fill="#3D60FF"/>
<path d="M55.2045 1.53709L55.5661 2.29423C55.6516 2.47841 55.8225 2.60801 56.0198 2.63529L56.8284 2.75807C57.3215 2.83311 57.5187 3.46065 57.1637 3.82217L56.5786 4.41561C56.434 4.55886 56.3748 4.76349 56.4077 4.96812L56.5457 5.80712C56.6312 6.31871 56.1118 6.70752 55.6713 6.46878L54.9481 6.07315C54.7706 5.97765 54.5602 5.97765 54.3893 6.07315L53.6661 6.46878C53.2256 6.70752 52.7062 6.31871 52.7917 5.80712L52.9298 4.96812C52.9627 4.76349 52.8969 4.55886 52.7588 4.41561L52.1737 3.82217C51.8187 3.46065 52.0159 2.83311 52.509 2.75807L53.3177 2.63529C53.5149 2.60801 53.6858 2.47841 53.7713 2.29423L54.1329 1.53709C54.3564 1.07325 54.9942 1.07325 55.2111 1.53709H55.2045Z" fill="#EF0A62"/>
<defs>
<clipPath id="clip0_2100_2204">
<rect width="47.5701" height="47.5701" fill="white" transform="translate(34.1541 25.569)"/>
</clipPath>
</defs>
</svg>
