<svg width="398" height="398" viewBox="0 0 398 398" fill="none" xmlns="http://www.w3.org/2000/svg">
<g clip-path="url(#clip0_2048_1730)">
<rect width="398" height="398" rx="199" fill="white"/>
<path d="M164.237 346.876C161.487 347.146 156.597 347.123 153.832 346.876C150.379 346.575 144.601 345.231 141.233 344.141C140.468 343.894 139.703 344.373 139.958 343.13C147.065 336.03 156.103 328.792 162.522 321.175C179.587 300.905 157.3 267.209 141.418 252.671C126.517 239.029 100.229 224.135 80.4378 235.676L55.8186 259.616C54.6058 259.809 55.1311 259.438 54.8994 258.828C50.0868 246.066 50.9519 227.627 59.8664 216.851C69.7234 204.939 83.914 194.711 94.273 183.047C117.409 164.098 157.517 184.878 177.238 200.698C201.44 220.111 231.961 260.79 223.387 293.59C221.123 302.242 217.099 305.185 211.359 311.04C199.169 323.47 182.02 345.161 164.245 346.884L164.237 346.876ZM193.159 304.691L194.905 304.42C195.616 303.941 195.369 303.478 195.345 302.837C195.121 295.088 187.875 278.99 183.998 271.937C168.579 243.888 133.353 211.753 101.218 205.573C99.8659 205.31 96.5055 204.12 95.6944 205.264L95.4318 207.017C114.427 210.231 131.785 219.91 146.594 231.884C168.957 249.975 187.798 275.977 193.167 304.675L193.159 304.691Z" fill="black"/>
<path d="M250.972 178.141L252.1 187.705L253.861 187.96C255.298 170.641 246.044 149.961 228.732 144.021C220.235 141.108 211.691 142.646 202.978 143.464L203.24 145.226L213.391 145.481L185.411 171.174C171.483 153.314 157.038 119.479 170.95 98.4438C182.429 86.9878 194.588 72.5423 207.025 62.2682C236.635 37.8035 287.65 73.5388 308.237 96.3503C326.985 117.123 352.091 161.579 328.476 186.531C319.87 195.615 306.622 209.249 297.244 217.144C275.769 235.228 241.401 220.922 221.502 206.739L250.972 178.134V178.141ZM215.77 87.3509C252.054 97.4395 285.294 128.455 300.226 162.723C301.3 165.179 303.463 173.36 304.475 174.657C305.147 175.523 305.502 175.499 306.213 174.696C307.402 172.888 302.845 162.452 301.779 160.027C288.909 130.834 259.956 102.098 230.548 89.6297C228.586 88.7954 216.581 84.1914 215.7 85.1106L215.77 87.3586V87.3509Z" fill="black"/>
<path d="M90.6657 234.34C119.742 230.408 154.782 263.077 163.349 289.11C166.933 300.002 167.984 310.786 160.205 320.017C156.806 324.057 139.348 341.199 135.509 343.3C118.746 352.492 93.3308 337.908 80.662 326.66C66.1006 313.729 44.3628 283.169 56.2051 263.471C58.7234 259.292 76.3052 242.243 80.6929 238.821C83.3194 236.774 87.3518 234.781 90.658 234.333L90.6657 234.34ZM88.2479 253.861L87.3363 255.275C87.4908 256.04 98.6224 260.536 100.646 261.625C116.59 270.238 130.966 284.962 139.209 301.099C140.198 303.038 142.322 309.55 143.141 310.461C143.882 311.273 144.13 311.334 144.887 310.492C145.512 309.542 145.103 308.546 144.887 307.58C144.269 304.915 140.955 298.851 139.479 296.217C128.912 277.345 109.144 260.111 88.2556 253.861H88.2479Z" fill="black"/>
<path d="M218.435 144.708C235.036 145.28 247.388 159.208 250.316 174.835L202.12 222.05C197.045 216.179 191.97 210.246 186.23 205.008C181.626 200.814 173.368 195.901 169.753 192.007C169.359 191.583 168.687 191.335 168.873 190.578L218.443 144.708H218.435Z" fill="black"/>
<path d="M336.556 139.425C324.459 103.164 293.822 72.0867 258.488 57.9425C272.625 43.0798 297.545 54.9452 311.288 64.9876C328.236 77.3706 354.014 109.622 343.593 131.731C343.022 132.943 337.738 140.475 336.556 139.425Z" fill="black"/>
<path d="M193.16 304.691C187.799 275.985 168.95 249.983 146.587 231.899C131.778 219.918 114.42 210.246 95.4248 207.033L95.6875 205.279C96.4986 204.128 99.8589 205.325 101.211 205.588C133.346 211.768 168.572 243.904 183.991 271.953C187.868 279.005 195.114 295.104 195.338 302.852C195.354 303.486 195.601 303.949 194.898 304.436L193.152 304.706L193.16 304.691Z" fill="white"/>
<path d="M215.769 87.3514L215.7 85.1034C216.58 84.1842 228.585 88.7882 230.547 89.6225C259.948 102.09 288.908 130.827 301.778 160.019C302.852 162.445 307.409 172.881 306.212 174.689C305.509 175.492 305.154 175.515 304.474 174.65C303.462 173.352 301.291 165.172 300.225 162.715C285.293 128.448 252.053 97.4401 215.769 87.3436V87.3514Z" fill="white"/>
<path d="M88.2479 253.861C109.136 260.111 128.904 277.337 139.472 296.217C140.947 298.843 144.261 304.915 144.879 307.58C145.103 308.546 145.512 309.55 144.879 310.492C144.122 311.342 143.875 311.272 143.133 310.461C142.307 309.557 140.19 303.038 139.201 301.099C130.959 284.961 116.583 270.238 100.639 261.625C98.6147 260.535 87.4831 256.032 87.3286 255.275L88.2401 253.861H88.2479Z" fill="white"/>
</g>
<defs>
<clipPath id="clip0_2048_1730">
<rect width="398" height="398" fill="white"/>
</clipPath>
</defs>
</svg>
