<svg width="398" height="398" viewBox="0 0 398 398" fill="none" xmlns="http://www.w3.org/2000/svg">
<g clip-path="url(#clip0_2048_1730)">
<rect width="398" height="398" rx="199" fill="white"/>
<path d="M168.072 330.565C165.625 330.806 161.275 330.785 158.814 330.565C155.742 330.297 150.601 329.101 147.604 328.132C146.924 327.912 146.244 328.338 146.47 327.232C152.793 320.916 160.835 314.476 166.546 307.699C181.728 289.665 161.9 259.686 147.769 246.751C134.512 234.614 111.124 221.363 93.5154 231.631L71.6118 252.93C70.5327 253.102 71.0001 252.772 70.7939 252.229C66.5121 240.875 67.2819 224.47 75.2131 214.882C83.9828 204.284 96.6082 195.184 105.825 184.807C126.409 167.948 162.092 186.435 179.639 200.511C201.171 217.782 228.326 253.975 220.697 283.156C218.683 290.854 215.102 293.473 209.996 298.682C199.151 309.741 183.893 329.039 168.079 330.572L168.072 330.565ZM193.804 293.033L195.357 292.792C195.989 292.366 195.769 291.954 195.749 291.383C195.549 284.49 189.103 270.167 185.652 263.892C171.934 238.937 140.594 210.346 112.003 204.848C110.801 204.614 107.811 203.556 107.089 204.573L106.856 206.133C123.756 208.992 139.199 217.604 152.374 228.256C172.271 244.353 189.034 267.486 193.81 293.019L193.804 293.033Z" fill="black"/>
<path d="M245.24 180.442L246.243 188.951L247.81 189.177C249.089 173.769 240.855 155.37 225.453 150.085C217.893 147.494 210.292 148.861 202.539 149.59L202.773 151.157L211.804 151.384L186.91 174.243C174.519 158.353 161.666 128.25 174.044 109.535C184.257 99.3429 195.075 86.4907 206.14 77.3498C232.484 55.5836 277.872 87.3773 296.188 107.673C312.868 126.154 335.205 165.707 314.195 187.906C306.538 195.988 294.752 208.119 286.408 215.143C267.302 231.232 236.724 218.504 219.02 205.885L245.24 180.435V180.442ZM213.92 99.6659C246.202 108.642 275.776 136.236 289.061 166.724C290.016 168.91 291.941 176.188 292.841 177.342C293.439 178.112 293.755 178.092 294.387 177.377C295.446 175.769 291.391 166.483 290.442 164.325C278.992 138.353 253.233 112.786 227.068 101.693C225.322 100.951 214.642 96.8549 213.859 97.6728L213.92 99.6728V99.6659Z" fill="black"/>
<path d="M102.615 230.442C128.484 226.944 159.659 256.009 167.281 279.171C170.47 288.861 171.405 298.456 164.484 306.669C161.46 310.263 145.927 325.514 142.512 327.383C127.598 335.562 104.986 322.586 93.7147 312.579C80.7594 301.074 61.4193 273.885 71.9553 256.36C74.1959 252.642 89.8384 237.473 93.7421 234.429C96.0789 232.607 99.6665 230.834 102.608 230.436L102.615 230.442ZM100.464 247.81L99.6528 249.068C99.7902 249.748 109.694 253.748 111.495 254.717C125.68 262.38 138.47 275.48 145.804 289.837C146.683 291.562 148.573 297.356 149.302 298.167C149.962 298.889 150.182 298.944 150.855 298.195C151.412 297.349 151.048 296.463 150.855 295.604C150.305 293.232 147.357 287.837 146.044 285.494C136.642 268.703 119.055 253.37 100.471 247.81H100.464Z" fill="black"/>
<path d="M216.292 150.697C231.061 151.205 242.051 163.597 244.656 177.501L201.776 219.507C197.261 214.284 192.745 209.005 187.639 204.346C183.543 200.614 176.196 196.243 172.979 192.779C172.629 192.401 172.031 192.181 172.196 191.507L216.299 150.697H216.292Z" fill="black"/>
<path d="M321.383 145.996C310.621 113.735 283.363 86.0854 251.927 73.5012C264.504 60.2779 286.676 70.8346 298.902 79.7693C313.981 90.7864 336.916 119.48 327.645 139.15C327.136 140.229 322.435 146.93 321.383 145.996Z" fill="black"/>
<path d="M193.804 293.033C189.034 267.493 172.265 244.359 152.368 228.27C139.193 217.61 123.749 209.006 106.849 206.147L107.083 204.586C107.804 203.562 110.794 204.628 111.997 204.861C140.588 210.36 171.928 238.951 185.646 263.906C189.096 270.181 195.543 284.504 195.742 291.397C195.756 291.961 195.976 292.373 195.35 292.806L193.797 293.047L193.804 293.033Z" fill="white"/>
<path d="M213.92 99.6663L213.858 97.6663C214.641 96.8484 225.322 100.945 227.067 101.687C253.225 112.78 278.992 138.346 290.442 164.319C291.397 166.477 295.452 175.762 294.387 177.37C293.761 178.085 293.445 178.106 292.84 177.336C291.94 176.181 290.009 168.903 289.06 166.717C275.775 136.23 246.201 108.642 213.92 99.6594V99.6663Z" fill="white"/>
<path d="M100.464 247.81C119.048 253.37 136.635 268.696 146.037 285.493C147.35 287.83 150.299 293.232 150.848 295.603C151.048 296.462 151.412 297.356 150.848 298.194C150.175 298.95 149.955 298.889 149.295 298.167C148.56 297.363 146.677 291.562 145.797 289.837C138.464 275.48 125.673 262.38 111.488 254.717C109.687 253.748 99.7835 249.741 99.646 249.068L100.457 247.81H100.464Z" fill="white"/>
</g>
<defs>
<clipPath id="clip0_2048_1730">
<rect width="398" height="398" fill="white"/>
</clipPath>
</defs>
</svg>
