<svg width="262" height="264" viewBox="0 0 262 264" fill="none" xmlns="http://www.w3.org/2000/svg">
<path d="M148.076 83.4343C162.845 83.9429 173.835 96.3345 176.44 110.238L133.56 152.245C129.045 147.021 124.529 141.743 119.423 137.083C115.327 133.351 107.98 128.98 104.763 125.516C104.413 125.138 103.815 124.918 103.98 124.245L148.082 83.4343H148.076Z" fill="#54FD1B"/>
<path d="M253.167 78.7333C242.404 46.4725 215.147 18.8233 183.711 6.23925C196.288 -6.98398 218.46 3.57261 230.686 12.5072C245.765 23.5243 268.7 52.2181 259.428 71.888C258.92 72.9671 254.219 79.668 253.167 78.7333Z" fill="#54FD1B"/>
<path d="M37.6099 117.544C58.1938 100.685 93.8771 119.173 111.423 133.248C132.956 150.519 160.11 186.712 152.481 215.894C150.467 223.591 146.887 226.21 141.781 231.419C130.936 242.477 115.678 261.776 99.8638 263.309L99.8569 263.302C97.4103 263.542 93.0596 263.522 90.5991 263.302C87.527 263.034 82.3857 261.838 79.3892 260.869C78.7088 260.649 78.0286 261.075 78.2554 259.969C84.5782 253.653 92.6193 247.213 98.3306 240.437C113.513 222.402 93.6846 192.423 79.5542 179.488C66.2966 167.351 42.9083 154.1 25.3003 164.368L3.39697 185.667C2.318 185.839 2.78577 185.509 2.57959 184.966C-1.70215 173.612 -0.932652 157.207 6.99854 147.619C15.7682 137.021 28.3935 127.922 37.6099 117.544ZM43.7886 137.585C42.5858 137.351 39.5962 136.293 38.8745 137.311L38.8726 137.316C38.8708 137.319 38.8694 137.322 38.8677 137.324L38.6343 138.885C55.5341 141.744 70.9769 150.348 84.1519 161.008C104.049 177.097 120.819 200.231 125.588 225.771L125.582 225.784L127.134 225.543C127.24 225.47 127.321 225.395 127.383 225.322C127.706 224.965 127.55 224.599 127.533 224.12C127.333 217.227 120.887 202.904 117.437 196.629C103.719 171.674 72.3792 143.083 43.7886 137.585Z" fill="#54FD1B"/>
<path d="M137.925 10.0879C164.268 -11.6782 209.657 20.1158 227.973 40.4111C244.653 58.8922 266.988 98.4447 245.979 120.644C238.322 128.726 226.536 140.856 218.192 147.88C199.086 163.969 168.509 151.241 150.805 138.623L177.024 113.173V113.18L178.027 121.688L179.595 121.915C180.873 106.506 172.639 88.1074 157.237 82.8223C149.677 80.2314 142.076 81.5996 134.323 82.3281L134.558 83.8945L143.588 84.1211L118.695 106.98C106.304 91.0907 93.4514 60.988 105.829 42.2734C116.042 32.0811 126.86 19.2287 137.925 10.0879ZM158.853 34.4248C157.107 33.6825 146.427 29.5864 145.644 30.4043V30.4111L145.705 32.4111V32.4043C177.986 41.3802 207.56 68.9743 220.845 99.4619C220.985 99.7822 221.145 100.212 221.32 100.716C221.804 102.11 222.404 104.068 222.979 105.847C223.615 107.814 224.222 109.563 224.625 110.08C225.223 110.85 225.54 110.829 226.172 110.114C226.255 109.987 226.307 109.812 226.331 109.597C226.621 107.091 223.107 99.0466 222.227 97.0566C210.777 71.0844 185.01 45.5175 158.853 34.4248Z" fill="#54FD1B"/>
<path d="M34.4009 163.179C60.2699 159.681 91.445 188.746 99.0669 211.907C102.256 221.598 103.19 231.192 96.269 239.405C93.2444 243 77.7139 258.249 74.2974 260.119C59.3835 268.298 36.7719 255.322 25.5005 245.315C12.5453 233.81 -6.79525 206.621 3.74072 189.096C5.98155 185.377 21.6241 170.21 25.5278 167.165C27.8646 165.344 31.4525 163.57 34.394 163.172L34.4009 163.179ZM32.2485 180.547H32.2427L31.4321 181.805C31.5696 182.478 41.4733 186.485 43.2739 187.454C57.4592 195.117 70.2493 208.217 77.5825 222.574C78.4622 224.299 80.3452 230.1 81.0806 230.904C81.536 231.402 81.7816 231.585 82.1118 231.402C82.2616 231.322 82.4285 231.166 82.6401 230.931C83.1968 230.085 82.8326 229.199 82.6401 228.34C82.0903 225.969 79.1423 220.573 77.8296 218.229C68.4276 201.439 50.8402 186.106 32.2563 180.546H32.2495L32.2485 180.547Z" fill="#54FD1B"/>
</svg>
